<?xml version="1.0" encoding="utf-8"?>
<!-- Generator: Adobe Illustrator 19.0.0, SVG Export Plug-In . SVG Version: 6.00 Build 0)  -->
<svg version="1.1" id="Layer_1" xmlns="http://www.w3.org/2000/svg" xmlns:xlink="http://www.w3.org/1999/xlink" x="0px" y="0px"
	 viewBox="0 0 612 792" style="enable-background:new 0 0 612 792;" xml:space="preserve">
<g id="XMLID_2_">
	<polygon id="XMLID_4_" style="fill:#FCB315;" points="120.8,275.8 139.2,275.1 132.3,281.7 	"/>
	<polygon id="XMLID_5_" style="fill:#FCB315;" points="206.1,341.5 218.3,329.4 210.9,331.9 	"/>
	<polygon id="XMLID_6_" style="fill:#FCB315;" points="218.6,297.9 242.1,278 231.9,296.1 	"/>
	<polygon id="XMLID_7_" style="fill:#FCB315;" points="365.6,330.6 389,327.1 379.5,333.6 	"/>
	<polygon id="XMLID_8_" style="fill:#FCB315;" points="492.8,287.4 498.5,295.5 503.4,295.3 	"/>
</g>
<g id="XMLID_9_">
	<polygon id="XMLID_11_" style="fill:#2894B2;" points="325.3,330.4 326.6,336.7 334.3,328.8 	"/>
	<polygon id="XMLID_10_" style="fill:#2894B2;" points="162.8,283.1 166.3,294.8 171.1,296.5 	"/>
	<polygon id="XMLID_12_" style="fill:#2894B2;" points="373.7,294.4 393,287.6 393.8,294.8 	"/>
	<polygon id="XMLID_13_" style="fill:#2894B2;" points="502.9,302.4 508.2,309.9 529,295.8 	"/>
</g>
<g id="XMLID_14_">
	<path id="XMLID_15_" d="M114.8,307.6v-1.1h4.6v1.1l-1.4,0.2v4.4h6.2v-4.4l-1.4-0.2v-1.1h1.4h1.7h1.4v1.1l-1.4,0.2v10.1l1.4,0.2v1.1
		h-4.6v-1.1l1.4-0.2v-4.3h-6.2v4.3l1.4,0.2v1.1h-4.6v-1.1l1.4-0.2v-10.1L114.8,307.6z"/>
	<path id="XMLID_17_" d="M138.9,306.5v2.8h-1.5l-0.1-1.5h-2.8v10.1l1.4,0.2v1.1h-4.6v-1.1l1.4-0.2v-10.1h-2.8l-0.1,1.5h-1.5v-2.8
		H138.9z"/>
	<path id="XMLID_19_" d="M152.4,309L152.4,309l-4.2,10.2H147l-4.1-10.2l0,0l0.2,5.2v3.7l1.4,0.2v1.1h-4.6v-1.1l1.4-0.2v-10.1
		l-1.4-0.2v-1.1h1.4h2.2l4.1,10.4h0.1l4.1-10.4h3.7v1.1l-1.4,0.2v10.1l1.4,0.2v1.1h-4.6v-1.1l1.4-0.2v-3.7L152.4,309z"/>
	<path id="XMLID_21_" d="M156.6,319.3v-1.1l1.4-0.2v-10.1l-1.4-0.2v-1.1h1.4h1.7h1.4v1.1l-1.4,0.2v10.1h4.4l0.1-1.5h1.5v2.8H156.6z"
		/>
	<path id="XMLID_23_" d="M190.5,310.4h-1.2l-0.3-1.8c-0.3-0.3-0.6-0.5-1-0.7s-0.9-0.3-1.5-0.3c-1.3,0-2.4,0.5-3.1,1.4
		s-1.1,2.2-1.1,3.7v0.2c0,1.5,0.4,2.7,1.1,3.7s1.7,1.5,2.9,1.5c0.6,0,1.1-0.1,1.6-0.3s0.8-0.4,1.1-0.7l0.3-1.8h1.2v2.3
		c-0.4,0.5-0.9,0.9-1.7,1.3s-1.6,0.6-2.6,0.6c-1.7,0-3-0.6-4.1-1.8s-1.6-2.8-1.6-4.6v-0.2c0-1.9,0.5-3.4,1.6-4.7s2.4-1.8,4.1-1.8
		c1,0,1.8,0.2,2.6,0.6s1.3,0.8,1.7,1.3V310.4z"/>
	<path id="XMLID_25_" d="M201.4,310.3h-1.3l-0.3-1.8c-0.3-0.2-0.6-0.4-1.1-0.6s-0.9-0.2-1.5-0.2c-0.9,0-1.6,0.2-2.1,0.6
		s-0.7,0.9-0.7,1.5c0,0.6,0.3,1,0.8,1.4s1.3,0.7,2.4,1c1.3,0.3,2.4,0.8,3.1,1.5s1.1,1.5,1.1,2.4c0,1-0.4,1.9-1.3,2.5
		s-1.9,0.9-3.3,0.9c-1,0-1.9-0.2-2.6-0.5s-1.4-0.7-1.9-1.3v-2.4h1.3l0.3,1.8c0.3,0.3,0.7,0.5,1.2,0.7s1,0.3,1.7,0.3
		c0.9,0,1.6-0.2,2.1-0.6s0.8-0.9,0.8-1.5c0-0.6-0.2-1.1-0.7-1.5s-1.2-0.7-2.3-1c-1.4-0.3-2.4-0.8-3.2-1.4s-1.1-1.4-1.1-2.4
		c0-1,0.4-1.8,1.3-2.5s2-1,3.3-1c0.9,0,1.7,0.2,2.4,0.5s1.3,0.7,1.8,1.1V310.3z"/>
	<path id="XMLID_27_" d="M212.4,310.3h-1.3l-0.3-1.8c-0.3-0.2-0.6-0.4-1.1-0.6s-0.9-0.2-1.5-0.2c-0.9,0-1.6,0.2-2.1,0.6
		s-0.7,0.9-0.7,1.5c0,0.6,0.3,1,0.8,1.4s1.3,0.7,2.4,1c1.3,0.3,2.4,0.8,3.1,1.5s1.1,1.5,1.1,2.4c0,1-0.4,1.9-1.3,2.5
		s-1.9,0.9-3.3,0.9c-1,0-1.9-0.2-2.6-0.5s-1.4-0.7-1.9-1.3v-2.4h1.3l0.3,1.8c0.3,0.3,0.7,0.5,1.2,0.7s1,0.3,1.7,0.3
		c0.9,0,1.6-0.2,2.1-0.6s0.8-0.9,0.8-1.5c0-0.6-0.2-1.1-0.7-1.5s-1.2-0.7-2.3-1c-1.4-0.3-2.4-0.8-3.2-1.4s-1.1-1.4-1.1-2.4
		c0-1,0.4-1.8,1.3-2.5s2-1,3.3-1c0.9,0,1.7,0.2,2.4,0.5s1.3,0.7,1.8,1.1V310.3z"/>
	<path id="XMLID_29_" d="M236.8,306.5v1.1l-1.4,0.2v7.9c0,1.1-0.4,2-1.1,2.7s-1.7,1-2.8,1c-1.2,0-2.2-0.3-2.9-0.9s-1.1-1.5-1-2.7
		l0-0.1h1.7c0,0.8,0.2,1.4,0.6,1.8s1,0.6,1.7,0.6c0.6,0,1.2-0.2,1.6-0.6s0.6-1,0.6-1.7v-7.9l-1.4-0.2v-1.1h3.2H236.8z"/>
	<path id="XMLID_31_" d="M244.3,319.3c-0.1-0.3-0.1-0.5-0.1-0.7s0-0.4-0.1-0.6c-0.3,0.4-0.8,0.8-1.3,1.1s-1,0.4-1.6,0.4
		c-1,0-1.7-0.2-2.3-0.7s-0.8-1.2-0.8-2c0-0.9,0.4-1.6,1.1-2.1s1.7-0.7,3-0.7h1.8v-1.1c0-0.6-0.2-1-0.5-1.3s-0.8-0.5-1.5-0.5
		c-0.4,0-0.8,0.1-1.1,0.2s-0.6,0.3-0.8,0.5l-0.2,1h-1.3v-1.8c0.4-0.3,1-0.6,1.6-0.8s1.3-0.3,2-0.3c1.1,0,2,0.3,2.6,0.8s1,1.3,1,2.4
		v4.6c0,0.1,0,0.2,0,0.4s0,0.2,0,0.4l0.7,0.1v1.1H244.3z M241.5,318c0.6,0,1.1-0.1,1.6-0.4s0.8-0.6,1-1V315h-1.8
		c-0.7,0-1.3,0.2-1.7,0.5s-0.6,0.7-0.6,1.2c0,0.4,0.1,0.7,0.4,1S241,318,241.5,318z"/>
	<path id="XMLID_34_" d="M251.1,310.9l-1.1,0.2l2,5.4l0.2,0.7h0.1l0.2-0.7l1.9-5.4l-1.2-0.2v-1.1h3.7v1.1L256,311l-3.2,8.3h-1.3
		l-3.2-8.3l-0.8-0.1v-1.1h3.7V310.9z"/>
	<path id="XMLID_36_" d="M264,319.3c-0.1-0.3-0.1-0.5-0.1-0.7s0-0.4-0.1-0.6c-0.3,0.4-0.8,0.8-1.3,1.1s-1,0.4-1.6,0.4
		c-1,0-1.7-0.2-2.3-0.7s-0.8-1.2-0.8-2c0-0.9,0.4-1.6,1.1-2.1s1.7-0.7,3-0.7h1.8v-1.1c0-0.6-0.2-1-0.5-1.3s-0.8-0.5-1.5-0.5
		c-0.4,0-0.8,0.1-1.1,0.2s-0.6,0.3-0.8,0.5l-0.2,1h-1.3v-1.8c0.4-0.3,1-0.6,1.6-0.8s1.3-0.3,2-0.3c1.1,0,2,0.3,2.6,0.8s1,1.3,1,2.4
		v4.6c0,0.1,0,0.2,0,0.4s0,0.2,0,0.4l0.7,0.1v1.1H264z M261.2,318c0.6,0,1.1-0.1,1.6-0.4s0.8-0.6,1-1V315h-1.8
		c-0.7,0-1.3,0.2-1.7,0.5s-0.6,0.7-0.6,1.2c0,0.4,0.1,0.7,0.4,1S260.7,318,261.2,318z"/>
	<path id="XMLID_39_" d="M275,312.8h-1.3l-0.3-1.1c-0.2-0.2-0.5-0.4-0.8-0.5s-0.7-0.2-1.1-0.2c-0.6,0-1.1,0.1-1.4,0.4
		s-0.4,0.6-0.4,1c0,0.4,0.1,0.7,0.4,0.9s0.8,0.4,1.6,0.6c1.2,0.3,2.1,0.6,2.7,1.1s0.9,1,0.9,1.8c0,0.8-0.3,1.5-1,2s-1.6,0.8-2.7,0.8
		c-0.7,0-1.4-0.1-1.9-0.3s-1.1-0.4-1.5-0.7l0-2.2h1.3l0.3,1.3c0.2,0.2,0.5,0.3,0.8,0.4s0.7,0.1,1.1,0.1c0.6,0,1.1-0.1,1.4-0.4
		s0.5-0.6,0.5-1c0-0.4-0.1-0.7-0.4-0.9s-0.8-0.5-1.6-0.6c-1.2-0.3-2-0.6-2.6-1s-0.9-1-0.9-1.8c0-0.8,0.3-1.4,1-2s1.5-0.8,2.6-0.8
		c0.7,0,1.4,0.1,1.9,0.3s1.1,0.4,1.4,0.8L275,312.8z"/>
	<path id="XMLID_41_" d="M281.1,318.1c0.6,0,1.1-0.2,1.5-0.5s0.7-0.8,0.7-1.3h1.6l0,0.1c0,0.8-0.3,1.5-1.1,2.2s-1.6,1-2.6,1
		c-1.4,0-2.4-0.5-3.2-1.4s-1.1-2-1.1-3.4v-0.4c0-1.4,0.4-2.5,1.1-3.4s1.8-1.4,3.2-1.4c0.8,0,1.4,0.1,2.1,0.4s1.1,0.6,1.5,1l0.1,2.1
		h-1.4l-0.4-1.5c-0.2-0.2-0.5-0.4-0.8-0.5s-0.7-0.2-1.1-0.2c-0.9,0-1.6,0.3-1.9,1s-0.6,1.5-0.6,2.4v0.4c0,1,0.2,1.8,0.6,2.4
		S280.2,318.1,281.1,318.1z"/>
	<path id="XMLID_43_" d="M286.6,310.9v-1.1h3l0.2,1.4c0.3-0.5,0.6-0.9,1-1.1s0.8-0.4,1.4-0.4c0.1,0,0.3,0,0.4,0s0.3,0,0.3,0.1
		l-0.2,1.6l-1-0.1c-0.5,0-0.8,0.1-1.2,0.3s-0.6,0.5-0.7,0.9v5.5l1.4,0.2v1.1h-4.6v-1.1l1.4-0.2v-6.8L286.6,310.9z"/>
	<path id="XMLID_45_" d="M294,318.2l1.4-0.2v-6.8l-1.4-0.2v-1.1h3.2v8.2l1.4,0.2v1.1H294V318.2z M297.2,307.3h-1.7v-1.8h1.7V307.3z"
		/>
	<path id="XMLID_48_" d="M299.7,321.8l1.4-0.2v-10.4l-1.4-0.2v-1.1h2.9l0.2,1.2c0.3-0.4,0.7-0.8,1.2-1s1-0.3,1.6-0.3
		c1.2,0,2.1,0.5,2.7,1.4s1,2.2,1,3.7v0.2c0,1.4-0.3,2.5-1,3.3s-1.6,1.3-2.7,1.3c-0.6,0-1.1-0.1-1.5-0.3s-0.8-0.5-1.1-0.9v3.3
		l1.4,0.2v1.1h-4.6V321.8z M307.5,314.7c0-1.1-0.2-2-0.6-2.7c-0.4-0.7-1-1-1.9-1c-0.5,0-0.9,0.1-1.3,0.3s-0.6,0.5-0.9,0.9v4.6
		c0.2,0.4,0.5,0.7,0.8,0.9s0.8,0.3,1.3,0.3c0.8,0,1.4-0.3,1.9-0.9c0.4-0.6,0.6-1.4,0.6-2.3V314.7z"/>
	<path id="XMLID_51_" d="M313.9,307.5v2.3h1.8v1.3h-1.8v5.8c0,0.4,0.1,0.8,0.3,0.9s0.4,0.3,0.7,0.3c0.2,0,0.3,0,0.5,0
		s0.3-0.1,0.5-0.1l0.2,1.2c-0.2,0.1-0.4,0.2-0.7,0.3s-0.6,0.1-0.9,0.1c-0.7,0-1.3-0.2-1.7-0.6s-0.6-1.1-0.6-2V311h-1.5v-1.3h1.5
		v-2.3H313.9z"/>
	<path id="XMLID_53_" d="M333.8,320.1c0,1-0.3,1.7-0.8,2.3s-1.2,0.8-2.1,0.8c-0.2,0-0.4,0-0.5,0s-0.3-0.1-0.5-0.1l0.1-1.4
		c0.1,0,0.2,0.1,0.4,0.1s0.3,0,0.4,0c0.4,0,0.7-0.1,0.9-0.4s0.3-0.7,0.3-1.3v-8.9l-1.4-0.2v-1.1h3.2V320.1z M333.7,307.3H332v-1.7
		h1.7V307.3z"/>
	<path id="XMLID_56_" d="M347.1,313c0,1.1-0.2,2.2-0.6,3.1s-1,1.7-1.8,2.3l2.6,1.8l-1.2,1.1l-2.9-2.1c-0.3,0.1-0.6,0.2-0.9,0.2
		s-0.6,0.1-0.9,0.1c-1.7,0-3-0.6-4-1.8s-1.5-2.8-1.5-4.6v-0.2c0-1.9,0.5-3.4,1.5-4.6s2.4-1.9,4-1.9c1.7,0,3.1,0.6,4.2,1.9
		s1.6,2.8,1.6,4.6V313z M345.4,312.8c0-1.5-0.4-2.7-1.1-3.6s-1.7-1.4-3-1.4c-1.2,0-2.1,0.5-2.8,1.4s-1,2.2-1,3.6v0.2
		c0,1.5,0.3,2.7,1,3.7s1.6,1.4,2.8,1.4c1.3,0,2.3-0.5,3-1.4s1.1-2.2,1.1-3.7V312.8z"/>
	<path id="XMLID_59_" d="M355.4,317.9c-0.3,0.5-0.7,0.9-1.2,1.2c-0.5,0.3-1,0.4-1.6,0.4c-1,0-1.8-0.3-2.4-1s-0.9-1.7-0.9-3.1v-4.2
		l-1.1-0.2v-1.1h1.1h1.7v5.6c0,1,0.1,1.7,0.4,2.1s0.8,0.6,1.4,0.6c0.6,0,1.1-0.1,1.5-0.4s0.7-0.6,0.9-1.1v-5.5l-1.3-0.2v-1.1h1.3
		h1.7v8.2l1.1,0.2v1.1h-2.6L355.4,317.9z"/>
	<path id="XMLID_61_" d="M363.8,319.5c-1.3,0-2.4-0.4-3.2-1.3c-0.8-0.9-1.2-2-1.2-3.4v-0.4c0-1.4,0.4-2.5,1.2-3.4
		c0.8-0.9,1.8-1.3,2.9-1.3c1.3,0,2.2,0.4,2.9,1.2c0.7,0.8,1,1.8,1,3.1v1.1h-6.2l0,0c0,0.9,0.2,1.7,0.7,2.3s1.1,0.9,1.9,0.9
		c0.6,0,1.1-0.1,1.5-0.3s0.8-0.4,1.1-0.7l0.7,1.1c-0.3,0.3-0.8,0.6-1.3,0.8S364.6,319.5,363.8,319.5z M363.6,311
		c-0.6,0-1.1,0.2-1.5,0.7s-0.7,1.1-0.8,1.8l0,0h4.4v-0.2c0-0.7-0.2-1.2-0.5-1.7S364.3,311,363.6,311z"/>
	<path id="XMLID_64_" d="M369.2,310.9v-1.1h3l0.2,1.4c0.3-0.5,0.6-0.9,1-1.1c0.4-0.3,0.8-0.4,1.4-0.4c0.1,0,0.3,0,0.4,0
		s0.3,0,0.3,0.1l-0.2,1.6l-1-0.1c-0.5,0-0.8,0.1-1.2,0.3s-0.6,0.5-0.7,0.9v5.5l1.4,0.2v1.1h-4.6v-1.1l1.4-0.2v-6.8L369.2,310.9z"/>
	<path id="XMLID_66_" d="M385.8,310.9L385,311l-3.6,9.7c-0.2,0.6-0.6,1.2-1,1.7s-1.1,0.7-1.8,0.7c-0.1,0-0.3,0-0.5,0
		s-0.4-0.1-0.5-0.1l0.2-1.4c0,0,0.1,0,0.3,0c0.2,0,0.4,0,0.5,0c0.4,0,0.7-0.2,0.9-0.5s0.4-0.7,0.6-1.1l0.4-1l-3.1-8.1l-0.9-0.1v-1.1
		h3.8v1.1l-1.1,0.2l1.6,4.7l0.3,1.2h0.1l2-5.9l-1.1-0.2v-1.1h3.8V310.9z"/>
	<path id="XMLID_68_" d="M400.1,318.2l0.9-0.1l4.5-11.6h1.5l4.4,11.6l0.9,0.1v1.1h-3.7v-1.1l1-0.2l-0.8-2.4h-5.1l-0.9,2.4l1,0.2v1.1
		h-3.7V318.2z M404.2,314.2h4.1l-2-5.5h-0.1L404.2,314.2z"/>
	<path id="XMLID_71_" d="M420,318.1c-0.3,0.4-0.7,0.8-1.1,1c-0.4,0.2-1,0.3-1.6,0.3c-1.2,0-2.1-0.4-2.7-1.3c-0.7-0.8-1-1.9-1-3.3
		v-0.2c0-1.5,0.3-2.8,1-3.7c0.7-0.9,1.6-1.4,2.7-1.4c0.6,0,1.1,0.1,1.5,0.3c0.4,0.2,0.8,0.5,1.1,0.9v-3.9l-1.4-0.2v-1.1h1.4h1.7
		v12.4l1.4,0.2v1.1h-2.9L420,318.1z M415.3,314.9c0,1,0.2,1.7,0.6,2.3s1,0.9,1.8,0.9c0.5,0,0.9-0.1,1.3-0.4s0.6-0.6,0.9-1v-4.4
		c-0.2-0.4-0.5-0.7-0.9-0.9s-0.8-0.4-1.3-0.4c-0.8,0-1.4,0.3-1.8,1c-0.4,0.7-0.6,1.6-0.6,2.7V314.9z"/>
	<path id="XMLID_74_" d="M424.4,314.4c0-1.4,0.4-2.6,1.1-3.5s1.8-1.4,3.1-1.4c1.3,0,2.4,0.5,3.1,1.4c0.8,0.9,1.1,2.1,1.1,3.5v0.2
		c0,1.4-0.4,2.6-1.1,3.5s-1.8,1.4-3.1,1.4c-1.3,0-2.4-0.5-3.1-1.4s-1.1-2.1-1.1-3.5V314.4z M426.1,314.6c0,1,0.2,1.8,0.6,2.5
		c0.4,0.7,1.1,1,1.9,1c0.8,0,1.4-0.3,1.9-1s0.6-1.5,0.6-2.5v-0.2c0-1-0.2-1.8-0.6-2.5s-1.1-1-1.9-1s-1.5,0.3-1.9,1s-0.6,1.5-0.6,2.5
		V314.6z"/>
	<path id="XMLID_77_" d="M443.2,314.9c0,1.4-0.3,2.5-1,3.3c-0.7,0.8-1.6,1.3-2.7,1.3c-0.6,0-1.2-0.1-1.6-0.4s-0.8-0.6-1.1-1.1
		l-0.2,1.2h-1.5v-12.3l-1.4-0.2v-1.1h3.2v5.3c0.3-0.4,0.7-0.7,1.1-1s1-0.3,1.6-0.3c1.2,0,2.1,0.5,2.7,1.4s1,2.2,1,3.7V314.9z
		 M441.5,314.7c0-1.1-0.2-2-0.6-2.7s-1-1-1.8-1c-0.5,0-1,0.1-1.3,0.4c-0.4,0.3-0.7,0.6-0.9,1v4.2c0.2,0.4,0.5,0.8,0.9,1
		s0.8,0.4,1.4,0.4c0.8,0,1.4-0.3,1.8-0.9c0.4-0.6,0.6-1.3,0.6-2.3V314.7z"/>
	<path id="XMLID_80_" d="M449.3,319.5c-1.3,0-2.4-0.4-3.2-1.3c-0.8-0.9-1.2-2-1.2-3.4v-0.4c0-1.4,0.4-2.5,1.2-3.4
		c0.8-0.9,1.8-1.3,2.9-1.3c1.3,0,2.2,0.4,2.9,1.2c0.7,0.8,1,1.8,1,3.1v1.1h-6.2l0,0c0,0.9,0.2,1.7,0.7,2.3s1.1,0.9,1.9,0.9
		c0.6,0,1.1-0.1,1.5-0.3s0.8-0.4,1.1-0.7l0.7,1.1c-0.3,0.3-0.8,0.6-1.3,0.8S450,319.5,449.3,319.5z M449,311c-0.6,0-1.1,0.2-1.5,0.7
		s-0.7,1.1-0.8,1.8l0,0h4.4v-0.2c0-0.7-0.2-1.2-0.5-1.7S449.7,311,449,311z"/>
	<path id="XMLID_83_" d="M477.8,310.4h-1.2l-0.3-1.8c-0.3-0.3-0.6-0.5-1-0.7s-0.9-0.3-1.5-0.3c-1.3,0-2.4,0.5-3.1,1.4
		s-1.1,2.2-1.1,3.7v0.2c0,1.5,0.3,2.7,1.1,3.7c0.7,1,1.7,1.5,2.9,1.5c0.6,0,1.1-0.1,1.6-0.3s0.8-0.4,1.1-0.7l0.3-1.8h1.2v2.3
		c-0.4,0.5-0.9,0.9-1.7,1.3s-1.6,0.6-2.6,0.6c-1.7,0-3-0.6-4.1-1.8s-1.6-2.8-1.6-4.6v-0.2c0-1.9,0.5-3.4,1.6-4.7s2.4-1.8,4.1-1.8
		c1,0,1.8,0.2,2.6,0.6s1.3,0.8,1.7,1.3V310.4z"/>
	<path id="XMLID_85_" d="M489.4,310.4h-1.2l-0.3-1.8c-0.3-0.3-0.6-0.5-1-0.7s-0.9-0.3-1.5-0.3c-1.3,0-2.4,0.5-3.1,1.4
		s-1.1,2.2-1.1,3.7v0.2c0,1.5,0.3,2.7,1.1,3.7c0.7,1,1.7,1.5,2.9,1.5c0.6,0,1.1-0.1,1.6-0.3s0.8-0.4,1.1-0.7l0.3-1.8h1.2v2.3
		c-0.4,0.5-0.9,0.9-1.7,1.3s-1.6,0.6-2.6,0.6c-1.7,0-3-0.6-4.1-1.8s-1.6-2.8-1.6-4.6v-0.2c0-1.9,0.5-3.4,1.6-4.7s2.4-1.8,4.1-1.8
		c1,0,1.8,0.2,2.6,0.6s1.3,0.8,1.7,1.3V310.4z"/>
</g>
<polyline id="XMLID_3_" style="fill:none;stroke:#000000;stroke-width:2;stroke-miterlimit:10;" points="82.4,329.8 140.2,274.6 
	117.4,275.4 171.9,296.5 159.7,278.6 184.9,341.2 219,329 202.8,346.1 243.4,277 217.4,299 315.8,277.8 326.3,337.2 335.3,328.2 
	312.5,332.3 336.9,355.9 392.2,326.6 358.9,331.5 398.7,334.7 393,287.6 371.9,294.9 504.4,295.7 490.6,285.1 508.4,310.3 
	529.6,295.7 495.4,303.8 536.9,337.2 "/>
</svg>
