<?xml version="1.0" encoding="utf-8"?>
<!-- Generator: Adobe Illustrator 19.0.0, SVG Export Plug-In . SVG Version: 6.00 Build 0)  -->
<svg version="1.1" id="Layer_1" xmlns="http://www.w3.org/2000/svg" xmlns:xlink="http://www.w3.org/1999/xlink" x="0px" y="0px"
	 viewBox="-104 148 403 498" style="enable-background:new -104 148 403 498;" xml:space="preserve">
<g>
	<g>
		<path style="fill:#2894B2;" d="M19.3,515.7l28,16.1l13.6-25.6L19.3,515.7z"/>
		<path style="fill:#2894B2;" d="M-58.3,233.8l39.5-5.4l-4.2,13.1L-58.3,233.8z"/>
		<path style="fill:#2894B2;" d="M202.5,423.3l10,13.6l20-18.7L202.5,423.3z"/>
		<path style="fill:#2894B2;" d="M198.2,297.1l4.9-13.8l12.1,13.8H198.2z"/>
		<path style="fill:#2894B2;" d="M-15.9,214l-2.4,12.9l10.8-2.2L-15.9,214z"/>
		<path style="fill:#2894B2;" d="M203.2,150l1.6,11.5L242,150l-38.8-1.6V150z"/>
	</g>
	<g>
		<path style="fill:#FCB315;" d="M102,555l38.8-0.8l-29.3-17.3L102,555z"/>
		<path style="fill:#FCB315;" d="M222.5,459l17.5-10v18.3L222.5,459z"/>
		<path style="fill:#FCB315;" d="M-62.5,404.6v18.3l27.1-14L-62.5,404.6z"/>
		<path style="fill:#FCB315;" d="M-27.6,378.9l19-12.8l8.1,17.9L-27.6,378.9z"/>
		<path style="fill:#FCB315;" d="M177.7,273.9l21-13.1l13.8,13.1H177.7z"/>
		<path style="fill:#FCB315;" d="M149.6,202.8v19.4l17.8-5.5L149.6,202.8z"/>
		<path style="fill:#FCB315;" d="M263.7,174.7l16.8-10.8l18.5,11.5L263.7,174.7z"/>
	</g>
	<path style="fill:none;stroke:#000000;stroke-width:3;stroke-miterlimit:10;" d="M168,172l77-22l-42-2l3,26l93,2l-19-12l-33,22
		l-98,37l1-21l27,21l-30,18l-32-34l-175,27l37,8l7-28l58,63c0,0,50.1-0.9,96-1.7c39-0.7,75-1.3,75-1.3l-14-14l-57,35l73,2l-12-13
		l-12,39l-55,36.8L28,339l-56,40l26,4l-16-39l-42,32l-3,47l29-14l-38-5l-32,36l141-24l60,14l92-25l24,32l20-19l-56,10l17,19l46,20
		v-18l-53,32L19,516l28,15l21-36l-79,17l13,46l138-4l-29-17L57.1,646"/>
</g>
<rect x="-104" y="163.9" style="fill:none;" width="403" height="482.1"/>
<g style="enable-background:new    ;">
	<path d="M56.3,167.2v-1.8h7.4v1.8l-2.3,0.4v7.1h10v-7.1l-2.3-0.4v-1.8h2.3h2.8h2.3v1.8l-2.3,0.4v16.2l2.3,0.4v1.8h-7.4v-1.8
		l2.3-0.4v-6.9h-10v6.9l2.3,0.4v1.8h-7.4v-1.8l2.3-0.4v-16.2L56.3,167.2z"/>
	<path d="M95.2,165.4v4.6h-2.4l-0.2-2.4h-4.6v16.2l2.3,0.4v1.8H83v-1.8l2.3-0.4v-16.2h-4.6l-0.2,2.4h-2.4v-4.6H95.2z"/>
	<path d="M116.9,169.5L116.9,169.5l-6.7,16.5h-1.9l-6.7-16.5l-0.1,0l0.3,8.3v6l2.3,0.4v1.8h-7.4v-1.8l2.3-0.4v-16.2l-2.3-0.4v-1.8
		h2.3h3.6l6.6,16.8h0.1l6.6-16.8h5.9v1.8l-2.3,0.4v16.2l2.3,0.4v1.8h-7.4v-1.8l2.3-0.4v-6L116.9,169.5z"/>
	<path d="M123.7,186v-1.8l2.3-0.4v-16.2l-2.3-0.4v-1.8h2.3h2.8h2.3v1.8l-2.3,0.4v16.2h7.2l0.2-2.4h2.4v4.5H123.7z"/>
</g>
<g style="enable-background:new    ;">
	<path d="M87.5,241.3h-2l-0.5-2.9c-0.5-0.4-1-0.8-1.7-1.1s-1.4-0.4-2.4-0.4c-2.1,0-3.8,0.8-4.9,2.3s-1.7,3.5-1.7,5.9v0.3
		c0,2.4,0.6,4.4,1.7,5.9c1.1,1.6,2.7,2.3,4.7,2.3c0.9,0,1.8-0.1,2.5-0.4s1.4-0.7,1.8-1.1l0.5-2.9h2v3.7c-0.6,0.8-1.5,1.4-2.7,2
		s-2.6,0.9-4.1,0.9c-2.7,0-4.9-1-6.6-3s-2.6-4.5-2.6-7.5v-0.3c0-3,0.8-5.5,2.5-7.5s3.9-3,6.6-3c1.6,0,2.9,0.3,4.1,0.9
		c1.2,0.6,2.1,1.3,2.7,2V241.3z"/>
	<path d="M105.1,241.1H103l-0.5-2.9c-0.4-0.4-1-0.7-1.7-0.9c-0.7-0.2-1.5-0.4-2.5-0.4c-1.5,0-2.6,0.3-3.4,0.9s-1.2,1.4-1.2,2.5
		c0,0.9,0.4,1.6,1.2,2.2c0.8,0.6,2.1,1.1,3.9,1.6c2.2,0.5,3.8,1.3,4.9,2.4c1.1,1,1.7,2.3,1.7,3.9c0,1.7-0.7,3-2,4
		c-1.4,1-3.1,1.5-5.3,1.5c-1.6,0-3-0.3-4.2-0.8c-1.2-0.5-2.2-1.2-3-2v-3.8H93l0.5,3c0.5,0.4,1.2,0.8,1.9,1.1s1.6,0.4,2.7,0.4
		c1.4,0,2.5-0.3,3.3-0.9c0.8-0.6,1.2-1.4,1.2-2.4c0-0.9-0.4-1.7-1.1-2.4c-0.7-0.6-2-1.2-3.8-1.6c-2.2-0.5-3.9-1.3-5.1-2.3
		s-1.8-2.3-1.8-3.8c0-1.6,0.7-3,2.1-4s3.1-1.6,5.3-1.6c1.4,0,2.8,0.2,3.9,0.7c1.2,0.5,2.1,1.1,2.9,1.8V241.1z"/>
	<path d="M122.8,241.1h-2.1l-0.5-2.9c-0.4-0.4-1-0.7-1.7-0.9c-0.7-0.2-1.5-0.4-2.5-0.4c-1.5,0-2.6,0.3-3.4,0.9s-1.2,1.4-1.2,2.5
		c0,0.9,0.4,1.6,1.2,2.2c0.8,0.6,2.1,1.1,3.9,1.6c2.2,0.5,3.8,1.3,4.9,2.4s1.7,2.3,1.7,3.9c0,1.7-0.7,3-2,4s-3.1,1.5-5.3,1.5
		c-1.6,0-3-0.3-4.2-0.8c-1.2-0.5-2.2-1.2-3-2v-3.8h2.1l0.5,3c0.5,0.4,1.2,0.8,1.9,1.1c0.7,0.3,1.6,0.4,2.7,0.4
		c1.4,0,2.5-0.3,3.3-0.9s1.2-1.4,1.2-2.4c0-0.9-0.4-1.7-1.1-2.4c-0.7-0.6-2-1.2-3.8-1.6c-2.2-0.5-3.9-1.3-5.1-2.3
		c-1.2-1-1.8-2.3-1.8-3.8c0-1.6,0.7-3,2.1-4c1.4-1.1,3.1-1.6,5.3-1.6c1.4,0,2.8,0.2,3.9,0.7c1.2,0.5,2.1,1.1,2.9,1.8V241.1z"/>
</g>
<g style="enable-background:new    ;">
	<path d="M40.9,304.6v1.8l-2.3,0.4v12.7c0,1.8-0.6,3.3-1.7,4.4c-1.2,1.1-2.7,1.6-4.5,1.6c-2,0-3.6-0.5-4.7-1.5
		c-1.2-1-1.7-2.5-1.7-4.4l0-0.1h2.7c0,1.3,0.3,2.2,1,2.9c0.6,0.6,1.6,0.9,2.7,0.9c1,0,1.9-0.3,2.5-1c0.7-0.7,1-1.6,1-2.8v-12.7
		l-2.3-0.4v-1.8h5.1H40.9z"/>
	<path d="M53,325.2c-0.1-0.4-0.2-0.8-0.2-1.1c0-0.3-0.1-0.7-0.1-1c-0.5,0.7-1.2,1.3-2,1.7c-0.8,0.5-1.7,0.7-2.6,0.7
		c-1.6,0-2.8-0.4-3.6-1.2c-0.8-0.8-1.2-1.9-1.2-3.3c0-1.5,0.6-2.6,1.8-3.4c1.2-0.8,2.8-1.2,4.8-1.2h2.9v-1.8c0-0.9-0.3-1.6-0.8-2.1
		c-0.6-0.5-1.4-0.8-2.4-0.8c-0.7,0-1.3,0.1-1.8,0.3c-0.5,0.2-1,0.4-1.3,0.7l-0.3,1.6h-2.2v-3c0.7-0.6,1.5-1,2.5-1.3s2.1-0.5,3.2-0.5
		c1.7,0,3.1,0.4,4.2,1.3s1.6,2.2,1.6,3.8v7.4c0,0.2,0,0.4,0,0.6c0,0.2,0,0.4,0,0.6l1.1,0.2v1.8H53z M48.5,323.2
		c0.9,0,1.8-0.2,2.5-0.7c0.8-0.4,1.3-1,1.6-1.6v-2.5h-3c-1.1,0-2,0.3-2.7,0.8c-0.7,0.5-1,1.2-1,1.9c0,0.7,0.2,1.2,0.6,1.5
		C47.1,323,47.7,323.2,48.5,323.2z"/>
	<path d="M64,311.7l-1.8,0.3l3.2,8.7l0.3,1.1h0.1l0.3-1.1l3.1-8.7l-1.9-0.3v-1.8h5.9v1.8l-1.3,0.2l-5.1,13.3h-2.1l-5.2-13.3
		l-1.3-0.2v-1.8H64V311.7z"/>
	<path d="M84.7,325.2c-0.1-0.4-0.2-0.8-0.2-1.1c0-0.3-0.1-0.7-0.1-1c-0.5,0.7-1.2,1.3-2,1.7c-0.8,0.5-1.7,0.7-2.6,0.7
		c-1.6,0-2.8-0.4-3.6-1.2c-0.8-0.8-1.2-1.9-1.2-3.3c0-1.5,0.6-2.6,1.8-3.4c1.2-0.8,2.8-1.2,4.8-1.2h2.9v-1.8c0-0.9-0.3-1.6-0.8-2.1
		c-0.6-0.5-1.4-0.8-2.4-0.8c-0.7,0-1.3,0.1-1.8,0.3c-0.5,0.2-1,0.4-1.3,0.7l-0.3,1.6h-2.2v-3c0.7-0.6,1.5-1,2.5-1.3s2.1-0.5,3.2-0.5
		c1.7,0,3.1,0.4,4.2,1.3s1.6,2.2,1.6,3.8v7.4c0,0.2,0,0.4,0,0.6c0,0.2,0,0.4,0,0.6l1.1,0.2v1.8H84.7z M80.3,323.2
		c0.9,0,1.8-0.2,2.5-0.7c0.8-0.4,1.3-1,1.6-1.6v-2.5h-3c-1.1,0-2,0.3-2.7,0.8c-0.7,0.5-1,1.2-1,1.9c0,0.7,0.2,1.2,0.6,1.5
		C78.8,323,79.4,323.2,80.3,323.2z"/>
	<path d="M102.4,314.7h-2.1l-0.5-1.8c-0.3-0.3-0.8-0.6-1.3-0.8c-0.5-0.2-1.1-0.3-1.7-0.3c-1,0-1.7,0.2-2.2,0.7
		c-0.5,0.4-0.7,1-0.7,1.6c0,0.6,0.2,1.1,0.6,1.4c0.4,0.3,1.3,0.7,2.6,0.9c1.9,0.4,3.4,1,4.3,1.7c0.9,0.7,1.4,1.7,1.4,2.9
		c0,1.4-0.5,2.5-1.7,3.3c-1.1,0.8-2.5,1.3-4.3,1.3c-1.2,0-2.2-0.1-3.1-0.4c-0.9-0.3-1.8-0.7-2.5-1.2l0-3.5h2.1l0.5,2.1
		c0.3,0.3,0.8,0.5,1.3,0.6c0.6,0.1,1.1,0.2,1.7,0.2c1,0,1.8-0.2,2.3-0.6c0.6-0.4,0.8-0.9,0.8-1.6c0-0.6-0.2-1.1-0.7-1.5
		c-0.5-0.4-1.4-0.7-2.7-1c-1.9-0.4-3.3-1-4.2-1.7s-1.4-1.6-1.4-2.8c0-1.2,0.5-2.3,1.6-3.2c1.1-0.9,2.4-1.3,4.1-1.3
		c1.2,0,2.2,0.2,3.1,0.5c0.9,0.3,1.7,0.7,2.3,1.3L102.4,314.7z"/>
	<path d="M112.4,323.3c0.9,0,1.7-0.3,2.4-0.9s1.1-1.3,1.1-2.1h2.5l0,0.1c0,1.3-0.5,2.5-1.8,3.5c-1.2,1-2.6,1.5-4.3,1.5
		c-2.2,0-3.9-0.7-5.1-2.2c-1.2-1.5-1.8-3.3-1.8-5.5v-0.6c0-2.2,0.6-4,1.8-5.5c1.2-1.5,2.9-2.2,5.1-2.2c1.2,0,2.3,0.2,3.3,0.6
		c1,0.4,1.8,1,2.4,1.7l0.1,3.4H116l-0.6-2.4c-0.3-0.3-0.8-0.6-1.3-0.8c-0.5-0.2-1.1-0.3-1.8-0.3c-1.5,0-2.5,0.5-3.1,1.6
		s-0.9,2.3-0.9,3.9v0.6c0,1.6,0.3,2.9,0.9,3.9S110.9,323.3,112.4,323.3z"/>
	<path d="M121.1,311.7v-1.8h4.8l0.3,2.2c0.4-0.8,1-1.4,1.6-1.8c0.6-0.4,1.4-0.7,2.2-0.7c0.2,0,0.4,0,0.7,0c0.2,0,0.4,0.1,0.5,0.1
		l-0.4,2.6l-1.6-0.1c-0.7,0-1.4,0.2-1.9,0.5c-0.5,0.3-0.9,0.8-1.2,1.5v8.8l2.3,0.4v1.8h-7.4v-1.8l2.3-0.4v-10.9L121.1,311.7z"/>
	<path d="M133.1,323.4l2.3-0.4v-10.9l-2.3-0.4v-1.8h5.1V323l2.3,0.4v1.8h-7.4V323.4z M138.2,305.9h-2.8v-2.8h2.8V305.9z"/>
	<path d="M142.3,329.3l2.3-0.4v-16.8l-2.3-0.4v-1.8h4.7l0.3,1.9c0.5-0.7,1.1-1.2,1.9-1.6c0.7-0.4,1.6-0.6,2.5-0.6
		c1.9,0,3.4,0.8,4.4,2.3c1.1,1.5,1.6,3.5,1.6,6v0.3c0,2.2-0.5,4-1.6,5.3c-1.1,1.4-2.5,2-4.4,2c-0.9,0-1.8-0.2-2.5-0.5
		s-1.3-0.8-1.8-1.4v5.3l2.3,0.4v1.8h-7.4V329.3z M154.9,317.8c0-1.7-0.3-3.2-1-4.3s-1.7-1.7-3-1.7c-0.8,0-1.5,0.2-2,0.5
		s-1,0.8-1.4,1.5v7.5c0.3,0.6,0.8,1.1,1.4,1.5s1.3,0.5,2.1,0.5c1.3,0,2.3-0.5,3-1.4s1-2.2,1-3.8V317.8z"/>
	<path d="M165.1,306.2v3.7h2.9v2.1h-2.9v9.3c0,0.7,0.1,1.2,0.4,1.5c0.3,0.3,0.7,0.4,1.2,0.4c0.2,0,0.5,0,0.8-0.1
		c0.3,0,0.6-0.1,0.8-0.1l0.4,1.9c-0.3,0.2-0.7,0.3-1.2,0.4s-1,0.2-1.5,0.2c-1.1,0-2-0.3-2.7-1c-0.7-0.7-1-1.8-1-3.2v-9.3h-2.4v-2.1
		h2.4v-3.7H165.1z"/>
</g>
<g style="enable-background:new    ;">
	<path d="M58.4,396c0,1.6-0.4,2.8-1.2,3.6s-1.9,1.3-3.4,1.3c-0.3,0-0.6,0-0.8-0.1c-0.2,0-0.5-0.1-0.8-0.2l0.2-2.2
		c0.1,0,0.3,0.1,0.6,0.1s0.5,0,0.6,0c0.6,0,1.1-0.2,1.5-0.6c0.4-0.4,0.5-1.1,0.5-2v-14.4l-2.3-0.4v-1.8h5.1V396z M58.3,375.5h-2.8
		v-2.8h2.8V375.5z"/>
	<path d="M79.8,384.6c0,1.8-0.3,3.5-1,5c-0.7,1.5-1.6,2.7-2.8,3.7l4.2,2.9l-1.9,1.7l-4.7-3.3c-0.5,0.2-1,0.3-1.5,0.4s-1,0.1-1.5,0.1
		c-2.7,0-4.8-1-6.5-3s-2.5-4.5-2.5-7.5v-0.3c0-3,0.8-5.5,2.5-7.5s3.8-3,6.5-3c2.7,0,5,1,6.7,3c1.7,2,2.6,4.5,2.6,7.5V384.6z
		 M77.1,384.3c0-2.4-0.6-4.4-1.7-5.9c-1.1-1.5-2.7-2.3-4.8-2.3c-1.9,0-3.5,0.8-4.6,2.3c-1.1,1.5-1.6,3.5-1.6,5.9v0.3
		c0,2.4,0.5,4.4,1.6,5.9c1.1,1.5,2.6,2.3,4.6,2.3c2.1,0,3.7-0.8,4.8-2.3s1.7-3.5,1.7-5.9V384.3z"/>
	<path d="M93.2,392.5c-0.5,0.8-1.1,1.5-1.9,1.9c-0.8,0.4-1.6,0.7-2.6,0.7c-1.7,0-3-0.5-3.9-1.6s-1.4-2.7-1.4-5v-6.8l-1.8-0.4v-1.8
		h1.8h2.8v9.1c0,1.6,0.2,2.8,0.7,3.4s1.2,0.9,2.3,0.9c1,0,1.8-0.2,2.5-0.6c0.6-0.4,1.1-1,1.5-1.7v-8.9l-2.1-0.4v-1.8h2.1h2.8v13.1
		l1.8,0.4v1.8h-4.3L93.2,392.5z"/>
	<path d="M106.8,395.1c-2.1,0-3.8-0.7-5.1-2.1c-1.3-1.4-1.9-3.3-1.9-5.5v-0.6c0-2.2,0.6-4,1.9-5.4s2.8-2.2,4.6-2.2
		c2.1,0,3.6,0.6,4.7,1.9c1.1,1.2,1.6,2.9,1.6,5v1.7h-9.9l0,0.1c0,1.5,0.4,2.7,1.1,3.6c0.7,0.9,1.7,1.4,3,1.4c0.9,0,1.8-0.1,2.5-0.4
		c0.7-0.3,1.3-0.6,1.8-1.1l1.1,1.8c-0.5,0.5-1.3,1-2.2,1.3C109.2,394.9,108.1,395.1,106.8,395.1z M106.4,381.4
		c-0.9,0-1.7,0.4-2.4,1.2c-0.7,0.8-1.1,1.8-1.2,3l0,0.1h7.1v-0.4c0-1.1-0.3-2-0.9-2.7C108.4,381.7,107.6,381.4,106.4,381.4z"/>
	<path d="M115.4,381.3v-1.8h4.8l0.3,2.2c0.4-0.8,1-1.4,1.6-1.8c0.6-0.4,1.4-0.7,2.2-0.7c0.2,0,0.4,0,0.7,0s0.4,0.1,0.5,0.1l-0.4,2.6
		l-1.6-0.1c-0.7,0-1.4,0.2-1.9,0.5c-0.5,0.3-0.9,0.8-1.2,1.5v8.8l2.3,0.4v1.8h-7.4V393l2.3-0.4v-10.9L115.4,381.3z"/>
	<path d="M142.2,381.3l-1.4,0.2l-5.8,15.7c-0.4,1-0.9,1.9-1.7,2.7c-0.7,0.8-1.7,1.1-2.9,1.1c-0.2,0-0.5,0-0.8-0.1
		c-0.3-0.1-0.6-0.1-0.8-0.1l0.3-2.2c-0.1,0,0.1,0,0.5,0s0.6,0,0.7,0c0.6,0,1.1-0.3,1.4-0.8c0.4-0.5,0.7-1.1,1-1.8l0.7-1.6l-5.1-13
		l-1.4-0.2v-1.8h6.2v1.8l-1.7,0.3l2.6,7.6l0.5,2h0.1l3.2-9.5l-1.7-0.3v-1.8h6.2V381.3z"/>
</g>
<g style="enable-background:new    ;">
	<path d="M32.6,462.6l1.5-0.2l7.2-18.6h2.4l7.1,18.6l1.5,0.2v1.8h-5.9v-1.8l1.6-0.3l-1.4-3.8h-8.3l-1.4,3.8l1.6,0.3v1.8h-5.9V462.6z
		 M39.2,456.2h6.5l-3.2-8.9h-0.1L39.2,456.2z"/>
	<path d="M68.4,457.3c0,2.2-0.5,4-1.6,5.3c-1.1,1.4-2.5,2-4.4,2c-1,0-1.9-0.2-2.6-0.6c-0.7-0.4-1.4-0.9-1.8-1.7l-0.3,2h-2.4v-19.9
		l-2.3-0.4v-1.8h5.1v8.6c0.5-0.7,1.1-1.2,1.8-1.6c0.7-0.4,1.5-0.5,2.5-0.5c1.9,0,3.4,0.8,4.4,2.3s1.6,3.5,1.6,6V457.3z M65.6,457
		c0-1.8-0.3-3.2-1-4.3c-0.6-1.1-1.6-1.7-2.9-1.7c-0.9,0-1.6,0.2-2.2,0.6c-0.6,0.4-1.1,1-1.4,1.7v6.8c0.3,0.7,0.8,1.3,1.4,1.7
		c0.6,0.4,1.3,0.6,2.2,0.6c1.3,0,2.3-0.5,2.9-1.4c0.6-0.9,1-2.2,1-3.7V457z"/>
	<path d="M71.2,456.6c0-2.3,0.6-4.1,1.8-5.6s2.9-2.2,5-2.2c2.1,0,3.8,0.7,5,2.2c1.2,1.5,1.8,3.3,1.8,5.6v0.3c0,2.3-0.6,4.2-1.8,5.6
		c-1.2,1.5-2.9,2.2-5,2.2c-2.1,0-3.8-0.7-5-2.2c-1.2-1.5-1.8-3.3-1.8-5.6V456.6z M73.9,456.9c0,1.6,0.3,3,1,4
		c0.7,1.1,1.7,1.6,3.1,1.6c1.3,0,2.3-0.5,3-1.6c0.7-1.1,1-2.4,1-4v-0.3c0-1.6-0.3-2.9-1-4s-1.7-1.6-3-1.6s-2.4,0.5-3,1.6s-1,2.4-1,4
		V456.9z"/>
	<path d="M101.4,457.3c0,2.2-0.5,4-1.6,5.3c-1.1,1.4-2.5,2-4.4,2c-1,0-1.9-0.2-2.6-0.6c-0.7-0.4-1.4-0.9-1.8-1.7l-0.3,2h-2.4v-19.9
		l-2.3-0.4v-1.8h5.1v8.6c0.5-0.7,1.1-1.2,1.8-1.6c0.7-0.4,1.5-0.5,2.5-0.5c1.9,0,3.4,0.8,4.4,2.3c1.1,1.5,1.6,3.5,1.6,6V457.3z
		 M98.6,457c0-1.8-0.3-3.2-1-4.3c-0.6-1.1-1.6-1.7-2.9-1.7c-0.9,0-1.6,0.2-2.2,0.6c-0.6,0.4-1.1,1-1.4,1.7v6.8
		c0.3,0.7,0.8,1.3,1.4,1.7c0.6,0.4,1.3,0.6,2.2,0.6c1.3,0,2.3-0.5,2.9-1.4c0.6-0.9,1-2.2,1-3.7V457z"/>
	<path d="M111.2,464.7c-2.1,0-3.8-0.7-5.1-2.1c-1.3-1.4-1.9-3.3-1.9-5.5v-0.6c0-2.2,0.6-4,1.9-5.4s2.8-2.2,4.6-2.2
		c2.1,0,3.6,0.6,4.7,1.9c1.1,1.2,1.6,2.9,1.6,5v1.7h-9.9l0,0.1c0,1.5,0.4,2.7,1.1,3.6c0.7,0.9,1.7,1.4,3,1.4c0.9,0,1.8-0.1,2.5-0.4
		c0.7-0.3,1.3-0.6,1.8-1.1l1.1,1.8c-0.5,0.5-1.3,1-2.2,1.3C113.5,464.5,112.5,464.7,111.2,464.7z M110.8,451c-0.9,0-1.7,0.4-2.4,1.2
		c-0.7,0.8-1.1,1.8-1.2,3l0,0.1h7.1v-0.4c0-1.1-0.3-2-0.9-2.7C112.8,451.3,111.9,451,110.8,451z"/>
	<path d="M142.7,450.1h-2l-0.5-2.9c-0.5-0.4-1-0.8-1.7-1.1c-0.7-0.3-1.4-0.4-2.4-0.4c-2.1,0-3.8,0.8-4.9,2.3
		c-1.2,1.6-1.7,3.5-1.7,5.9v0.3c0,2.4,0.6,4.4,1.7,5.9s2.7,2.3,4.7,2.3c0.9,0,1.8-0.1,2.5-0.4s1.4-0.7,1.8-1.1l0.5-2.9h2v3.7
		c-0.6,0.8-1.5,1.4-2.7,2s-2.6,0.9-4.1,0.9c-2.7,0-4.9-1-6.6-3c-1.7-2-2.6-4.5-2.6-7.5v-0.3c0-3,0.8-5.5,2.5-7.5c1.7-2,3.9-3,6.6-3
		c1.6,0,2.9,0.3,4.1,0.9c1.2,0.6,2.1,1.3,2.7,2V450.1z"/>
	<path d="M161.4,450.1h-2l-0.5-2.9c-0.5-0.4-1-0.8-1.7-1.1c-0.7-0.3-1.4-0.4-2.4-0.4c-2.1,0-3.8,0.8-4.9,2.3
		c-1.2,1.6-1.7,3.5-1.7,5.9v0.3c0,2.4,0.6,4.4,1.7,5.9c1.1,1.6,2.7,2.3,4.7,2.3c0.9,0,1.8-0.1,2.5-0.4s1.4-0.7,1.8-1.1l0.5-2.9h2
		v3.7c-0.6,0.8-1.5,1.4-2.7,2s-2.6,0.9-4.1,0.9c-2.7,0-4.9-1-6.6-3c-1.7-2-2.6-4.5-2.6-7.5v-0.3c0-3,0.8-5.5,2.5-7.5
		c1.7-2,3.9-3,6.6-3c1.6,0,2.9,0.3,4.1,0.9c1.2,0.6,2.1,1.3,2.7,2V450.1z"/>
</g>
</svg>
