<?xml version="1.0" encoding="utf-8"?>
<!-- Generator: Adobe Illustrator 16.0.0, SVG Export Plug-In . SVG Version: 6.00 Build 0)  -->
<!DOCTYPE svg PUBLIC "-//W3C//DTD SVG 1.1//EN" "http://www.w3.org/Graphics/SVG/1.1/DTD/svg11.dtd">
<svg version="1.1" id="Layer_1" xmlns="http://www.w3.org/2000/svg" xmlns:xlink="http://www.w3.org/1999/xlink" x="0px" y="0px"
	 width="403px" height="498px" viewBox="0 0 403 498" enable-background="new 0 0 403 498" xml:space="preserve">
<g>
	<g>
		<path fill="#2894B2" d="M123.3,367.7l28,16.1l13.6-25.6L123.3,367.7z"/>
		<path fill="#2894B2" d="M45.7,85.8l39.5-5.4L81,93.5L45.7,85.8z"/>
		<path fill="#2894B2" d="M306.5,275.3l10,13.601l20-18.7L306.5,275.3z"/>
		<path fill="#2894B2" d="M302.2,149.1l4.899-13.8l12.101,13.8H302.2z"/>
		<path fill="#2894B2" d="M88.1,66l-2.4,12.9l10.8-2.2L88.1,66z"/>
		<path fill="#2894B2" d="M307.2,2l1.6,11.5L346,2l-38.8-1.6V2z"/>
	</g>
	<g>
		<path fill="#FCB315" d="M206,407l38.8-0.8l-29.3-17.3L206,407z"/>
		<path fill="#FCB315" d="M326.5,311l17.5-10v18.3L326.5,311z"/>
		<path fill="#FCB315" d="M41.5,256.6V274.9l27.1-14L41.5,256.6z"/>
		<path fill="#FCB315" d="M76.4,230.9l19-12.8l8.1,17.9L76.4,230.9z"/>
		<path fill="#FCB315" d="M281.7,125.9l21-13.1l13.8,13.1H281.7z"/>
		<path fill="#FCB315" d="M253.6,54.8v19.4l17.801-5.5L253.6,54.8z"/>
		<path fill="#FCB315" d="M367.7,26.7l16.8-10.8L403,27.4L367.7,26.7z"/>
	</g>
	<path fill="none" stroke="#000000" stroke-width="3" stroke-miterlimit="10" d="M272,24l77-22l-42-2l3,26l93,2l-19-12l-33,22
		l-98,37l1-21l27,21l-30,18l-32-34L44,86l37,8l7-28l58,63c0,0,50.1-0.9,96-1.7c39-0.7,75-1.3,75-1.3l-14-14l-57,35l73,2l-12-13
		l-12,39l-55,36.8L132,191l-56,40l26,4l-16-39l-42,32l-3,47l29-14l-38-5L0,292l141-24l60,14l92-25l24,32l20-19l-56,10l17,19l46,20
		v-18l-53,32l-168,35l28,15l21-36l-79,17l13,46l138-4l-29-17l-53.9,109"/>
</g>
<rect y="15.9" fill="none" width="403" height="482.1"/>
<text transform="matrix(1 0 0 1 159.2954 37.9897)"><tspan x="0" y="0" font-family="'RobotoSlab-Regular'" font-size="29">HTML</tspan><tspan x="15.194" y="69.6" font-family="'RobotoSlab-Regular'" font-size="29">CSS</tspan><tspan x="-30.295" y="139.2" font-family="'RobotoSlab-Regular'" font-size="29">Javascript</tspan><tspan x="-2.903" y="208.8" font-family="'RobotoSlab-Regular'" font-size="29">jQuery</tspan><tspan x="-23.449" y="278.4" font-family="'RobotoSlab-Regular'" font-size="29">Abobe CC</tspan></text>
</svg>
